<svg width="424" height="419" viewBox="0 0 424 419" fill="none" xmlns="http://www.w3.org/2000/svg">
<path d="M0 17C0 7.61115 7.61116 0 17 0H407C416.389 0 424 7.61116 424 17V402C424 411.389 416.389 419 407 419H17C7.61115 419 0 411.389 0 402V17Z" fill="url(#paint0_linear_2_2305)"/>
<path d="M357.569 166.407H346.768C343.903 171.347 342.453 178.4 342.086 181.31C341.959 182.528 341.78 186.568 342.086 192.977C342.392 199.386 352.535 204.255 357.569 205.888H370.622C374.478 205.079 378.655 203.166 380.261 202.31C387.3 198.328 391.966 192.095 393.42 189.476C397.827 180.143 399.642 173.143 399.999 170.809V164.509C399.999 160.776 400.275 152.313 390.36 143.975C380.445 135.637 367.868 133.184 362.819 133H332.572C325.903 133.433 315.834 136.725 311.606 138.018C300.041 140.831 286.388 149.469 281.008 153.437C277.141 155.968 267.017 164.573 257.455 178.737C247.894 192.902 241.835 220.277 240 232.194V252C245.621 290.401 276.665 292.823 282.79 295.418C287.69 297.493 305.759 297.09 314.181 296.629C317.045 296.859 325.223 296.421 335.023 292.823C347.273 288.326 357.311 282.531 367.52 271.201C375.686 262.137 382.152 248.569 384.364 242.919H378.579C376.333 249.007 369.76 258.717 366.754 262.811C355.099 277.341 344.721 281.666 335.023 284.607C327.264 286.959 316.761 285.587 312.479 284.607C304.789 282.6 300.886 274.084 299.896 270.076C298.331 260.666 299.811 246.724 300.747 240.929C302.494 228.276 309.185 199.65 312.73 186.789C318.135 170.548 323.464 158.804 325.453 154.962C332.162 143.533 342.151 139.293 346.307 138.602H354.769C359.725 139.953 361.87 143.261 362.324 144.746V154.962L357.569 166.407Z" fill="white" stroke="white" stroke-width="1.2491"/>
<path d="M25.7541 288.872L24 294.982L116.107 294.79L117.691 288.793H103.681C108.141 269.115 118.028 225.179 121.894 206.854C125.76 188.529 129.817 179.165 131.363 176.773C140.708 156.021 155.037 149.25 161.033 148.459C165.92 148.527 168.682 152.556 169.452 154.563C170.223 156.569 169.452 165.414 169.452 165.414L142.051 288.793H128.699L127.188 294.79L219.023 295L220.493 288.872H202.676C207.047 266.913 217.228 217.607 222.982 196.056C228.735 174.506 227.071 159.56 225.52 154.78C219.428 134.968 197.047 132.132 186.619 133.191C150.928 133.191 139.725 153.112 131.363 166.606L137.953 136.212H59.8921L58.2285 142.127H76.624L43.7039 288.872H25.7541Z" fill="white" stroke="white" stroke-width="1.2491"/>
<defs>
<linearGradient id="paint0_linear_2_2305" x1="212" y1="0" x2="212" y2="419" gradientUnits="userSpaceOnUse">
<stop stop-color="#717CBA"/>
<stop offset="1" stop-color="#9DA5D0"/>
</linearGradient>
</defs>
</svg>
