<svg width="428" height="423" viewBox="0 0 428 423" fill="none" xmlns="http://www.w3.org/2000/svg">
<path d="M411.5 2H16.5C8.49187 2 2 8.49187 2 16.5V406.5C2 414.508 8.49187 421 16.5 421H411.5C419.508 421 426 414.508 426 406.5V16.5C426 8.49187 419.508 2 411.5 2Z" stroke="white" stroke-width="3"/>
<path d="M360.069 163.407H349.268C346.403 168.347 344.953 175.4 344.586 178.31C344.459 179.528 344.28 183.568 344.586 189.977C344.892 196.386 355.035 201.255 360.069 202.888H373.122C376.978 202.079 381.155 200.166 382.761 199.31C389.8 195.328 394.466 189.095 395.92 186.476C400.327 177.143 402.142 170.143 402.499 167.809V161.509C402.499 157.776 402.775 149.313 392.86 140.975C382.945 132.637 370.368 130.184 365.319 130H335.072C328.403 130.433 318.334 133.725 314.106 135.018C302.541 137.831 288.888 146.469 283.508 150.437C279.641 152.968 269.517 161.573 259.955 175.737C250.394 189.902 244.335 217.277 242.5 229.194V249C248.121 287.401 279.165 289.823 285.29 292.418C290.19 294.493 308.259 294.09 316.681 293.629C319.545 293.859 327.723 293.421 337.523 289.823C349.773 285.326 359.811 279.531 370.02 268.201C378.186 259.137 384.652 245.569 386.864 239.919H381.079C378.833 246.007 372.26 255.717 369.254 259.811C357.599 274.341 347.221 278.666 337.523 281.607C329.764 283.959 319.261 282.587 314.979 281.607C307.289 279.6 303.386 271.084 302.396 267.076C300.831 257.666 302.311 243.724 303.247 237.929C304.994 225.276 311.685 196.65 315.23 183.789C320.635 167.548 325.964 155.804 327.953 151.962C334.662 140.533 344.651 136.293 348.807 135.602H357.269C362.225 136.953 364.37 140.261 364.824 141.746V151.962L360.069 163.407Z" fill="white" stroke="white" stroke-width="1.2491"/>
<path d="M28.2541 285.872L26.5 291.982L118.607 291.79L120.191 285.793H106.181C110.641 266.115 120.528 222.179 124.394 203.854C128.26 185.529 132.317 176.165 133.863 173.773C143.208 153.021 157.537 146.25 163.533 145.459C168.42 145.527 171.182 149.556 171.952 151.563C172.723 153.569 171.952 162.414 171.952 162.414L144.551 285.793H131.199L129.688 291.79L221.523 292L222.993 285.872H205.176C209.547 263.913 219.728 214.607 225.482 193.056C231.235 171.506 229.571 156.56 228.02 151.78C221.928 131.968 199.547 129.132 189.119 130.191C153.428 130.191 142.225 150.112 133.863 163.606L140.453 133.212H62.3921L60.7285 139.127H79.124L46.2039 285.872H28.2541Z" fill="white" stroke="white" stroke-width="1.2491"/>
</svg>
