<svg width="37" height="37" viewBox="0 0 37 37" fill="none" xmlns="http://www.w3.org/2000/svg">
<path d="M34.8177 1.08203H2.19745C1.53612 1.08203 1 1.61815 1 2.27948V34.4869C1 35.1482 1.53612 35.6843 2.19745 35.6843H34.8177C35.4791 35.6843 36.0152 35.1482 36.0152 34.4869V2.27948C36.0152 1.61815 35.4791 1.08203 34.8177 1.08203Z" stroke="#6D79B8" stroke-width="0.87538"/>
<path d="M30.5705 14.4117H29.6786C29.442 14.8196 29.3222 15.4021 29.2919 15.6424C29.2814 15.743 29.2666 16.0766 29.2919 16.6059C29.3172 17.1352 30.1548 17.5373 30.5705 17.6721H31.6485C31.9669 17.6053 32.3119 17.4474 32.4445 17.3767C33.0258 17.0478 33.4111 16.5331 33.5312 16.3168C33.8952 15.546 34.045 14.968 34.0745 14.7752V14.2549C34.0745 13.9467 34.0973 13.2478 33.2785 12.5592C32.4597 11.8706 31.4211 11.668 31.0041 11.6528H28.5062C27.9555 11.6886 27.1239 11.9605 26.7748 12.0672C25.8197 12.2995 24.6922 13.0129 24.2479 13.3406C23.9285 13.5496 23.0925 14.2602 22.3028 15.4299C21.5132 16.5997 21.0129 18.8604 20.8613 19.8446V21.4802C21.3255 24.6515 23.8892 24.8515 24.3951 25.0658C24.7997 25.2372 26.2919 25.2039 26.9874 25.1658C27.2239 25.1848 27.8993 25.1486 28.7086 24.8515C29.7203 24.4801 30.5492 24.0016 31.3923 23.0659C32.0667 22.3174 32.6007 21.1969 32.7833 20.7303H32.3056C32.1201 21.233 31.5773 22.0349 31.3291 22.373C30.3666 23.573 29.5095 23.9301 28.7086 24.173C28.0679 24.3672 27.2005 24.2539 26.8469 24.173C26.2118 24.0073 25.8895 23.304 25.8077 22.973C25.6785 22.1959 25.8007 21.0445 25.878 20.5659C26.0223 19.521 26.5748 17.157 26.8676 16.0949C27.314 14.7537 27.754 13.7838 27.9183 13.4665C28.4723 12.5227 29.2973 12.1725 29.6405 12.1155H30.3393C30.7486 12.227 30.9257 12.5002 30.9632 12.6229V13.4665L30.5705 14.4117Z" fill="#6D79B8" stroke="#6D79B8" stroke-width="0.546719"/>
<path d="M3.16805 24.5252L3.02319 25.0298L10.6297 25.0139L10.7605 24.5187H9.60348C9.9718 22.8936 10.7883 19.2652 11.1076 17.7519C11.4268 16.2386 11.7619 15.4653 11.8895 15.2677C12.6613 13.554 13.8446 12.9948 14.3398 12.9295C14.7434 12.9351 14.9715 13.2678 15.035 13.4336C15.0987 13.5992 15.035 14.3297 15.035 14.3297L12.7722 24.5187H11.6695L11.5448 25.0139L19.1288 25.0313L19.2502 24.5252H17.7788C18.1398 22.7118 18.9805 18.6399 19.4557 16.8602C19.9308 15.0805 19.7934 13.8462 19.6653 13.4515C19.1622 11.8154 17.3139 11.5811 16.4527 11.6686C13.5053 11.6686 12.5801 13.3137 11.8895 14.4281L12.4338 11.9181H5.98727L5.84988 12.4066H7.36904L4.6504 24.5252H3.16805Z" fill="#6D79B8" stroke="#6D79B8" stroke-width="0.546719"/>
</svg>
