<svg width="34" height="29" viewBox="0 0 34 29" fill="none" xmlns="http://www.w3.org/2000/svg">
<path d="M33.3174 14.093C33.3174 12.0154 31.6262 10.3257 29.5496 10.3257C28.65 10.3257 27.8084 10.6548 27.1294 11.2304C27.1074 11.2439 27.0848 11.2567 27.0632 11.2706C24.6134 9.70324 21.3647 8.7024 17.7712 8.56652L19.916 2.46727L25.2694 3.74717C25.2738 5.43946 26.6505 6.81542 28.345 6.81542C30.0405 6.81542 31.4213 5.43581 31.4213 3.7395C31.4213 2.04246 30.0405 0.662842 28.345 0.662842C27.0559 0.662842 25.9546 1.45986 25.4981 2.58415L19.1555 1.06829L16.5216 8.55264C12.7743 8.62314 9.3784 9.63712 6.83722 11.2571C6.15308 10.6635 5.29944 10.3253 4.38335 10.3253C2.30607 10.3253 0.617432 12.0154 0.617432 14.0927C0.617432 15.3777 1.28039 16.5648 2.35465 17.2559C2.28606 17.6323 2.25025 18.014 2.24762 18.3966C2.24762 23.834 8.83817 28.2578 16.9384 28.2578C25.04 28.2578 31.6309 23.834 31.6309 18.3966C31.629 18.025 31.5957 17.6541 31.5316 17.288C32.6347 16.6021 33.3174 15.3978 33.3174 14.093ZM21.9341 18.9705C21.6302 18.9705 21.3292 18.9107 21.0484 18.7943C20.7675 18.678 20.5124 18.5074 20.2975 18.2924C20.0827 18.0774 19.9123 17.8222 19.7961 17.5413C19.68 17.2604 19.6203 16.9594 19.6205 16.6554C19.6206 16.1976 19.7564 15.75 20.0109 15.3694C20.2653 14.9888 20.6269 14.6921 21.0499 14.517C21.473 14.3419 21.9384 14.2962 22.3874 14.3857C22.8365 14.4751 23.2489 14.6957 23.5725 15.0195C23.8961 15.3434 24.1165 15.7559 24.2056 16.205C24.2948 16.6541 24.2488 17.1195 24.0734 17.5424C23.898 17.9653 23.6012 18.3267 23.2204 18.5809C22.8396 18.8351 22.392 18.9707 21.9341 18.9705ZM22.3947 22.9176C22.3253 22.9884 20.6659 24.6785 16.9124 24.6785C13.1381 24.6785 11.6295 22.9658 11.5664 22.892C11.4647 22.7726 11.4145 22.6179 11.4267 22.4616C11.4389 22.3053 11.5125 22.1602 11.6314 22.0581C11.7504 21.9571 11.9042 21.9069 12.0598 21.9183C12.2154 21.9296 12.3604 22.0016 12.4635 22.1187C12.4971 22.1567 13.7565 23.4961 16.9124 23.4961C20.1209 23.4961 21.5291 22.1089 21.544 22.0953C21.654 21.987 21.8021 21.9259 21.9565 21.9252C22.1109 21.9245 22.2595 21.9841 22.3705 22.0914C22.4815 22.1987 22.5462 22.3452 22.5507 22.4996C22.5553 22.6539 22.4993 22.8039 22.3947 22.9176ZM9.95735 16.6554C9.95203 16.348 10.008 16.0426 10.122 15.7571C10.236 15.4716 10.4057 15.2117 10.6213 14.9925C10.8368 14.7732 11.0939 14.5992 11.3774 14.4804C11.661 14.3616 11.9654 14.3005 12.2728 14.3007C12.5802 14.3008 12.8846 14.3622 13.168 14.4813C13.4515 14.6003 13.7083 14.7746 13.9237 14.994C14.139 15.2134 14.3085 15.4735 14.4222 15.7592C14.536 16.0448 14.5916 16.3502 14.586 16.6576C14.575 17.2643 14.3261 17.8423 13.8931 18.2674C13.46 18.6924 12.8774 18.9304 12.2706 18.9301C11.6638 18.9298 11.0814 18.6913 10.6488 18.2658C10.2161 17.8404 9.96784 17.2621 9.95735 16.6554Z" fill="#453D9A"/>
</svg>
