<svg width="27" height="27" viewBox="0 0 27 27" fill="none" xmlns="http://www.w3.org/2000/svg">
<path d="M24.9144 0.310791H1.51823C1.13325 0.310791 0.764031 0.463725 0.491807 0.735948C0.219584 1.00817 0.0666504 1.37739 0.0666504 1.76237V25.1589C0.0667472 25.5438 0.219724 25.913 0.491937 26.1851C0.76415 26.4572 1.13331 26.6101 1.51823 26.6101H14.1138V16.4257H10.6865V12.4567H14.1138V9.52944C14.1138 6.13244 16.1885 4.28309 19.2188 4.28309C20.6704 4.28309 21.9177 4.39084 22.2815 4.43942V7.98947L20.1798 7.99056C18.5317 7.99056 18.2128 8.7737 18.2128 9.92283V12.4571H22.1431L21.6314 16.4261H18.2128V26.6101H24.9148C25.2997 26.61 25.6688 26.457 25.941 26.1848C26.2131 25.9126 26.366 25.5435 26.366 25.1585V1.76237C26.366 1.37739 26.213 1.00817 25.9408 0.735948C25.6686 0.463725 25.2994 0.310791 24.9144 0.310791Z" fill="#453D9A"/>
</svg>
