<svg width="29" height="29" viewBox="0 0 29 29" fill="none" xmlns="http://www.w3.org/2000/svg">
<path d="M23.4744 0.762939H5.211C2.62368 0.762939 0.645142 2.74148 0.645142 5.3288V23.5922C0.645142 26.1795 2.62368 28.1581 5.211 28.1581H23.4744C26.0617 28.1581 28.0403 26.1795 28.0403 23.5922V5.3288C28.0403 2.74148 26.0617 0.762939 23.4744 0.762939ZM14.3427 9.89465C16.93 9.89465 18.9086 11.8732 18.9086 14.4605C18.9086 17.0478 16.93 19.0264 14.3427 19.0264C11.7554 19.0264 9.77685 17.0478 9.77685 14.4605C9.77685 11.8732 11.7554 9.89465 14.3427 9.89465ZM20.1261 6.85075C20.1261 5.78538 21.0393 5.02441 21.9525 5.02441C22.8656 5.02441 23.7788 5.93758 23.7788 6.85075C23.7788 7.76392 23.0178 8.67709 21.9525 8.67709C20.8871 8.67709 20.1261 7.91611 20.1261 6.85075ZM23.4744 25.1142H5.211C4.29783 25.1142 3.68905 24.5054 3.68905 23.5922V14.4605H6.73295C6.73295 18.722 10.0812 22.0703 14.3427 22.0703C18.6042 22.0703 21.9525 18.722 21.9525 14.4605H24.9964V23.5922C24.9964 24.5054 24.3876 25.1142 23.4744 25.1142Z" fill="#453D9A"/>
</svg>
