<svg width="30" height="31" viewBox="0 0 30 31" fill="none" xmlns="http://www.w3.org/2000/svg">
<path d="M5.82605 20.0264C7.15724 20.0225 8.43806 19.5171 9.41329 18.611L18.9407 24.055C18.6215 25.3024 18.7622 26.6231 19.3371 27.7752C19.912 28.9273 20.8827 29.8338 22.0713 30.3288C23.26 30.8238 24.5871 30.8741 25.8099 30.4705C27.0326 30.0669 28.069 29.2365 28.7295 28.1312C29.39 27.0259 29.6303 25.7197 29.4064 24.4517C29.1825 23.1837 28.5095 22.0388 27.5104 21.2265C26.5114 20.4142 25.2532 19.9889 23.9662 20.0284C22.6792 20.068 21.4495 20.5697 20.5022 21.4418L10.9748 15.9978C11.0753 15.6173 11.1301 15.2231 11.1392 14.8289L20.4992 9.47928C21.4005 10.2993 22.5563 10.7844 23.7728 10.8532C24.9893 10.922 26.1925 10.5703 27.1805 9.8572C28.1685 9.14408 28.8812 8.11287 29.199 6.93659C29.5168 5.7603 29.4204 4.51049 28.926 3.39685C28.4316 2.2832 27.5692 1.37347 26.4835 0.820278C25.3979 0.267083 24.155 0.104081 22.9634 0.358618C21.7719 0.613154 20.7041 1.26974 19.9392 2.21823C19.1743 3.16672 18.7589 4.3494 18.7626 5.56786C18.7687 6.00618 18.8281 6.44299 18.9407 6.86609L10.2899 11.8079C9.78827 11.0318 9.09332 10.3995 8.27338 9.97327C7.45343 9.54701 6.5367 9.34139 5.61325 9.37662C4.68979 9.41186 3.79139 9.68672 3.00631 10.1742C2.22123 10.6617 1.57648 11.3451 1.1354 12.1571C0.694326 12.9692 0.472103 13.8821 0.490565 14.806C0.509028 15.7299 0.76754 16.6332 1.2407 17.427C1.71387 18.2208 2.3854 18.8778 3.18933 19.3336C3.99326 19.7893 4.90193 20.0281 5.82605 20.0264Z" fill="#453D9A"/>
</svg>
