<svg width="29" height="23" viewBox="0 0 29 23" fill="none" xmlns="http://www.w3.org/2000/svg">
<path d="M28.6547 2.7379C27.6015 3.20444 26.4844 3.51052 25.3406 3.64595C26.5454 2.92506 27.447 1.79068 27.8774 0.454236C26.7449 1.12653 25.5056 1.59994 24.2134 1.85395C23.6735 1.27807 23.021 0.819214 22.2965 0.50581C21.572 0.192406 20.7908 0.0311335 20.0015 0.0319858C16.8149 0.0319858 14.2309 2.61516 14.2309 5.8025C14.2309 6.25433 14.2821 6.69521 14.3807 7.11783C9.58473 6.87712 5.333 4.57958 2.48683 1.08798C1.97365 1.96866 1.70399 2.97001 1.70552 3.98931C1.70476 4.93937 1.9387 5.87492 2.38654 6.71281C2.83439 7.5507 3.48227 8.26499 4.27263 8.79222C3.35642 8.76312 2.46041 8.51567 1.65913 8.07045C1.6584 8.09456 1.6584 8.1183 1.6584 8.14314C1.6584 10.9382 3.64729 13.2704 6.28672 13.8011C5.43683 14.0312 4.54574 14.0649 3.68089 13.8998C4.41508 16.1918 6.54606 17.8607 9.07116 17.9075C7.02709 19.5116 4.50293 20.3817 1.90459 20.3778C1.43887 20.3778 0.97973 20.3508 0.527893 20.2971C3.16635 21.9924 6.23709 22.8922 9.37324 22.889C19.9872 22.889 25.7913 14.0967 25.7913 6.47203C25.7913 6.22219 25.7855 5.97271 25.7745 5.7247C26.9049 4.90865 27.8802 3.89714 28.6547 2.7379Z" fill="#453D9A"/>
</svg>
