<svg width="9" height="9" viewBox="0 0 9 9" fill="none" xmlns="http://www.w3.org/2000/svg">
<path d="M1.20017 0.190749L4.50008 3.49066L7.79999 0.200749C7.86496 0.13464 7.94295 0.0827323 8.02901 0.0483077C8.11507 0.013883 8.20734 -0.00230938 8.29998 0.00075447C8.48176 0.0125185 8.65305 0.0900432 8.78186 0.218853C8.91067 0.347663 8.9882 0.518951 8.99996 0.700736C9.00086 0.790115 8.9836 0.878747 8.94923 0.961255C8.91485 1.04376 8.86407 1.11843 8.79996 1.18072L5.49005 4.50063L8.79996 7.82054C8.92996 7.94654 9.00196 8.12053 8.99996 8.30053C8.9882 8.48231 8.91067 8.6536 8.78186 8.78241C8.65305 8.91122 8.48176 8.98875 8.29998 9.00051C8.20734 9.00357 8.11507 8.98738 8.02901 8.95296C7.94295 8.91853 7.86496 8.86662 7.79999 8.80052L4.50008 5.5106L1.21017 8.80052C1.1452 8.86662 1.06722 8.91853 0.981156 8.95296C0.895094 8.98738 0.802826 9.00357 0.710185 9.00051C0.52501 8.99087 0.34997 8.91298 0.218855 8.78186C0.0877388 8.65074 0.00984336 8.47571 0.000204672 8.29053C-0.000700106 8.20115 0.0165603 8.11252 0.0509388 8.03001C0.0853173 7.9475 0.136097 7.87284 0.200199 7.81054L3.51011 4.50063L0.1902 1.18072C0.127903 1.11759 0.0789705 1.04254 0.0463264 0.960075C0.0136823 0.877606 -0.00200399 0.789403 0.000204672 0.700736C0.0119687 0.518951 0.0894934 0.347663 0.218303 0.218853C0.347113 0.0900432 0.518401 0.0125185 0.700186 0.00075447C0.792105 -0.00361138 0.883939 0.0110055 0.969961 0.0436938C1.05598 0.0763821 1.13435 0.126441 1.20017 0.190749Z" fill="white"/>
</svg>
