<svg width="13" height="12" viewBox="0 0 13 12" fill="none" xmlns="http://www.w3.org/2000/svg">
<path d="M12.3223 6.5625H7.23047L10.625 9.97852C10.7539 10.1074 10.9688 10.1074 11.0977 9.97852C11.9355 9.20508 12.5156 8.15234 12.666 6.94922C12.709 6.75586 12.5371 6.5625 12.3223 6.5625ZM11.9785 5.1875C11.8066 2.60938 9.76562 0.568359 7.1875 0.396484C6.99414 0.375 6.84375 0.546875 6.84375 0.740234V5.53125H11.6348C11.8281 5.53125 12 5.38086 11.9785 5.1875ZM5.8125 6.5625V1.4707C5.8125 1.27734 5.61914 1.10547 5.42578 1.12695C2.84766 1.49219 0.892578 3.72656 1 6.41211C1.08594 9.16211 3.44922 11.418 6.2207 11.375C7.29492 11.375 8.30469 11.0312 9.12109 10.4297C9.29297 10.3223 9.29297 10.0645 9.14258 9.91406L5.8125 6.5625Z" fill="#7E8A9D"/>
</svg>
