<svg width="10" height="14" viewBox="0 0 10 14" fill="none" xmlns="http://www.w3.org/2000/svg">
<path d="M9.76363 3.45128C9.72863 3.53648 9.66919 3.60942 9.5928 3.6609C9.51642 3.71237 9.42651 3.74009 9.33439 3.74055H6.53503C6.41129 3.74055 6.29261 3.69139 6.20512 3.6039C6.11762 3.5164 6.06846 3.39773 6.06846 3.27399V0.474618C6.06892 0.382507 6.09664 0.292593 6.14812 0.216208C6.19959 0.139822 6.27253 0.080383 6.35773 0.0453815C6.4427 0.00965251 6.53634 -0.000109199 6.62685 0.0173281C6.71736 0.0347655 6.80067 0.0786205 6.86628 0.143359L9.66565 2.94273C9.73039 3.00834 9.77425 3.09165 9.79168 3.18216C9.80912 3.27267 9.79936 3.36631 9.76363 3.45128ZM7.46815 8.40616V10.2724H2.80253V8.40616H7.46815ZM6.53503 9.33929C6.53503 9.21555 6.48587 9.09687 6.39837 9.00938C6.31088 8.92188 6.1922 8.87272 6.06846 8.87272H4.20222C4.07848 8.87272 3.95981 8.92188 3.87231 9.00938C3.78481 9.09687 3.73566 9.21555 3.73566 9.33929C3.73566 9.46303 3.78481 9.5817 3.87231 9.6692C3.95981 9.75669 4.07848 9.80585 4.20222 9.80585H6.06846C6.1922 9.80585 6.31088 9.75669 6.39837 9.6692C6.48587 9.5817 6.53503 9.46303 6.53503 9.33929ZM9.80096 4.20711V12.6052C9.80096 12.729 9.7518 12.8476 9.6643 12.9351C9.57681 13.0226 9.45813 13.0718 9.33439 13.0718H0.936288C0.812548 13.0718 0.693877 13.0226 0.606379 12.9351C0.518882 12.8476 0.469727 12.729 0.469727 12.6052V0.474618C0.469727 0.350878 0.518882 0.232207 0.606379 0.144709C0.693877 0.0572121 0.812548 0.00805664 0.936288 0.00805664H5.6019V3.27399C5.6019 3.52147 5.70021 3.75881 5.87521 3.9338C6.0502 4.1088 6.28755 4.20711 6.53503 4.20711H9.80096ZM1.86941 2.34086C1.86941 2.4646 1.91857 2.58328 2.00606 2.67077C2.09356 2.75827 2.21223 2.80743 2.33597 2.80743H4.20222C4.32596 2.80743 4.44463 2.75827 4.53213 2.67077C4.61962 2.58328 4.66878 2.4646 4.66878 2.34086C4.66878 2.21712 4.61962 2.09845 4.53213 2.01096C4.44463 1.92346 4.32596 1.8743 4.20222 1.8743H2.33597C2.21223 1.8743 2.09356 1.92346 2.00606 2.01096C1.91857 2.09845 1.86941 2.21712 1.86941 2.34086ZM1.86941 4.20711C1.86941 4.33085 1.91857 4.44952 2.00606 4.53702C2.09356 4.62452 2.21223 4.67367 2.33597 4.67367H4.20222C4.32596 4.67367 4.44463 4.62452 4.53213 4.53702C4.61962 4.44952 4.66878 4.33085 4.66878 4.20711C4.66878 4.08337 4.61962 3.9647 4.53213 3.8772C4.44463 3.7897 4.32596 3.74055 4.20222 3.74055H2.33597C2.21223 3.74055 2.09356 3.7897 2.00606 3.8772C1.91857 3.9647 1.86941 4.08337 1.86941 4.20711ZM8.40127 7.9396C8.40127 7.81586 8.35212 7.69719 8.26462 7.60969C8.17712 7.5222 8.05845 7.47304 7.93471 7.47304H2.33597C2.21223 7.47304 2.09356 7.5222 2.00606 7.60969C1.91857 7.69719 1.86941 7.81586 1.86941 7.9396V10.739C1.86941 10.8627 1.91857 10.9814 2.00606 11.0689C2.09356 11.1564 2.21223 11.2055 2.33597 11.2055H7.93471C8.05845 11.2055 8.17712 11.1564 8.26462 11.0689C8.35212 10.9814 8.40127 10.8627 8.40127 10.739V7.9396ZM8.40127 6.07336C8.40127 5.94962 8.35212 5.83094 8.26462 5.74345C8.17712 5.65595 8.05845 5.60679 7.93471 5.60679H2.33597C2.21223 5.60679 2.09356 5.65595 2.00606 5.74345C1.91857 5.83094 1.86941 5.94962 1.86941 6.07336C1.86941 6.1971 1.91857 6.31577 2.00606 6.40326C2.09356 6.49076 2.21223 6.53992 2.33597 6.53992H7.93471C8.05845 6.53992 8.17712 6.49076 8.26462 6.40326C8.35212 6.31577 8.40127 6.1971 8.40127 6.07336Z" fill="#7E8A9D"/>
</svg>
