<svg width="37" height="38" viewBox="0 0 37 38" fill="none" xmlns="http://www.w3.org/2000/svg">
<path d="M15.3787 37.0406C6.75152 35.5181 0.154297 28.0074 0.154297 18.9743C0.154297 8.92623 8.37545 0.705078 18.4235 0.705078C28.4716 0.705078 36.6928 8.92623 36.6928 18.9743C36.6928 28.0074 30.0955 35.5181 21.4684 37.0406L20.4534 36.2286H16.3936L15.3787 37.0406Z" fill="url(#paint0_linear_728_79937)"/>
<path d="M25.5284 24.0489L26.3404 18.9741H21.4686V15.4218C21.4686 14.0008 21.9761 12.8844 24.209 12.8844H26.5434V8.21555C25.2239 8.01256 23.803 7.80957 22.4835 7.80957C18.3222 7.80957 15.3788 10.347 15.3788 14.9143V18.9741H10.8115V24.0489H15.3788V36.9389C16.3938 37.1418 17.4087 37.2433 18.4237 37.2433C19.4387 37.2433 20.4536 37.1418 21.4686 36.9389V24.0489H25.5284Z" fill="white"/>
<defs>
<linearGradient id="paint0_linear_728_79937" x1="18.4235" y1="35.9789" x2="18.4235" y2="0.705078" gradientUnits="userSpaceOnUse">
<stop stop-color="#0062E0"/>
<stop offset="1" stop-color="#19AFFF"/>
</linearGradient>
</defs>
</svg>
