<svg width="32" height="32" viewBox="0 0 32 32" fill="none" xmlns="http://www.w3.org/2000/svg">
<path fill-rule="evenodd" clip-rule="evenodd" d="M30.5142 15.9587C30.5142 14.8576 30.4153 13.7988 30.2318 12.7823H15.6064V18.7892H23.9638C23.6038 20.7303 22.5097 22.375 20.8651 23.4761V27.3724H25.8837C28.8201 24.669 30.5142 20.688 30.5142 15.9587Z" fill="#4285F4"/>
<path fill-rule="evenodd" clip-rule="evenodd" d="M15.6057 31.1347C19.7985 31.1347 23.3136 29.7441 25.883 27.3724L20.8643 23.4761C19.4738 24.4078 17.695 24.9584 15.6057 24.9584C11.5611 24.9584 8.1377 22.2267 6.91657 18.5563H1.72852V22.5797C4.28372 27.6548 9.5353 31.1347 15.6057 31.1347Z" fill="#34A853"/>
<path fill-rule="evenodd" clip-rule="evenodd" d="M6.91691 18.5563C6.60633 17.6246 6.42987 16.6293 6.42987 15.6058C6.42987 14.5823 6.60633 13.5871 6.91691 12.6553V8.63196H1.72886C0.677128 10.7284 0.0771484 13.1 0.0771484 15.6058C0.0771484 18.1116 0.677128 20.4833 1.72886 22.5797L6.91691 18.5563Z" fill="#FBBC05"/>
<path fill-rule="evenodd" clip-rule="evenodd" d="M15.6057 6.25328C17.8856 6.25328 19.9326 7.03678 21.5419 8.57555L25.9959 4.12159C23.3066 1.6158 19.7914 0.0770264 15.6057 0.0770264C9.5353 0.0770264 4.28372 3.55691 1.72852 8.63202L6.91657 12.6554C8.1377 8.98495 11.5611 6.25328 15.6057 6.25328Z" fill="#EA4335"/>
</svg>
