<svg width="32" height="32" viewBox="0 0 32 32" fill="none" xmlns="http://www.w3.org/2000/svg">
<path d="M15.684 0.243652C11.4667 0.243652 10.9375 0.262093 9.2811 0.337473C7.62798 0.413176 6.49958 0.674902 5.51223 1.05892C4.49092 1.45555 3.62457 1.98612 2.76145 2.84959C1.89768 3.71273 1.36713 4.57911 0.969213 5.60013C0.584238 6.58783 0.322197 7.71659 0.247791 9.36911C0.173707 11.0255 0.154297 11.5551 0.154297 15.7725C0.154297 19.9899 0.173061 20.5175 0.248114 22.1739C0.324139 23.8271 0.585856 24.9555 0.969537 25.9429C1.36648 26.9643 1.89703 27.8307 2.76048 28.6938C3.62327 29.5576 4.48963 30.0895 5.51029 30.4861C6.49829 30.8701 7.627 31.1318 9.27981 31.2075C10.9362 31.2829 11.4651 31.3013 15.682 31.3013C19.8996 31.3013 20.4272 31.2829 22.0836 31.2075C23.7367 31.1318 24.8664 30.8701 25.8544 30.4861C26.8754 30.0895 27.7405 29.5576 28.6033 28.6938C29.467 27.8307 29.9976 26.9643 30.3955 25.9432C30.7772 24.9555 31.0393 23.8268 31.1169 22.1743C31.1913 20.5179 31.2107 19.9899 31.2107 15.7725C31.2107 11.5551 31.1913 11.0258 31.1169 9.36944C31.0393 7.71626 30.7772 6.58783 30.3955 5.60046C29.9976 4.57911 29.467 3.71273 28.6033 2.84959C27.7395 1.9858 26.8757 1.45523 25.8534 1.05892C24.8635 0.674902 23.7345 0.413176 22.0813 0.337473C20.425 0.262093 19.8977 0.243652 15.6791 0.243652H15.684ZM14.2909 3.04208C14.7044 3.04143 15.1657 3.04208 15.684 3.04208C19.83 3.04208 20.3215 3.05696 21.9587 3.13137C23.4727 3.2006 24.2945 3.45359 24.8418 3.66615C25.5665 3.94761 26.0831 4.28406 26.6263 4.82757C27.1698 5.37108 27.5062 5.88871 27.7883 6.61339C28.0009 7.16014 28.2542 7.98187 28.3231 9.49593C28.3975 11.1329 28.4137 11.6247 28.4137 15.7689C28.4137 19.9132 28.3975 20.4049 28.3231 22.0419C28.2539 23.556 28.0009 24.3777 27.7883 24.9245C27.5069 25.6492 27.1698 26.1652 26.6263 26.7084C26.0828 27.2519 25.5668 27.5883 24.8418 27.8698C24.2951 28.0833 23.4727 28.3357 21.9587 28.4049C20.3218 28.4793 19.83 28.4955 15.684 28.4955C11.5376 28.4955 11.0462 28.4793 9.40921 28.4049C7.89519 28.335 7.07348 28.082 6.52578 27.8695C5.80113 27.588 5.28351 27.2516 4.74002 26.708C4.19653 26.1645 3.86008 25.6482 3.57798 24.9232C3.36544 24.3765 3.11213 23.5547 3.04322 22.0407C2.96882 20.4037 2.95393 19.9119 2.95393 15.7651C2.95393 11.6182 2.96882 11.1291 3.04322 9.49205C3.11245 7.97799 3.36544 7.15625 3.57798 6.60886C3.85943 5.88418 4.19653 5.36655 4.74002 4.82304C5.28351 4.27953 5.80113 3.94308 6.52578 3.66097C7.07316 3.44745 7.89519 3.1951 9.40921 3.12555C10.8417 3.06084 11.3968 3.04143 14.2909 3.0382V3.04208ZM23.9729 5.62052C22.9441 5.62052 22.1095 6.45422 22.1095 7.48333C22.1095 8.51212 22.9441 9.34679 23.9729 9.34679C25.0016 9.34679 25.8363 8.51212 25.8363 7.48333C25.8363 6.45454 25.0016 5.61987 23.9729 5.61987V5.62052ZM15.684 7.79779C11.2801 7.79779 7.7095 11.3685 7.7095 15.7725C7.7095 20.1765 11.2801 23.7456 15.684 23.7456C20.0879 23.7456 23.6571 20.1765 23.6571 15.7725C23.6571 11.3685 20.0876 7.79779 15.6836 7.79779H15.684ZM15.684 10.5962C18.5425 10.5962 20.8601 12.9136 20.8601 15.7725C20.8601 18.6311 18.5425 20.9488 15.684 20.9488C12.8251 20.9488 10.5078 18.6311 10.5078 15.7725C10.5078 12.9136 12.8251 10.5962 15.684 10.5962Z" fill="url(#paint0_radial_728_79931)"/>
<path d="M15.684 0.243652C11.4667 0.243652 10.9375 0.262093 9.2811 0.337473C7.62798 0.413176 6.49958 0.674902 5.51223 1.05892C4.49092 1.45555 3.62457 1.98612 2.76145 2.84959C1.89768 3.71273 1.36713 4.57911 0.969213 5.60013C0.584238 6.58783 0.322197 7.71659 0.247791 9.36911C0.173707 11.0255 0.154297 11.5551 0.154297 15.7725C0.154297 19.9899 0.173061 20.5175 0.248114 22.1739C0.324139 23.8271 0.585856 24.9555 0.969537 25.9429C1.36648 26.9643 1.89703 27.8307 2.76048 28.6938C3.62327 29.5576 4.48963 30.0895 5.51029 30.4861C6.49829 30.8701 7.627 31.1318 9.27981 31.2075C10.9362 31.2829 11.4651 31.3013 15.682 31.3013C19.8996 31.3013 20.4272 31.2829 22.0836 31.2075C23.7367 31.1318 24.8664 30.8701 25.8544 30.4861C26.8754 30.0895 27.7405 29.5576 28.6033 28.6938C29.467 27.8307 29.9976 26.9643 30.3955 25.9432C30.7772 24.9555 31.0393 23.8268 31.1169 22.1743C31.1913 20.5179 31.2107 19.9899 31.2107 15.7725C31.2107 11.5551 31.1913 11.0258 31.1169 9.36944C31.0393 7.71626 30.7772 6.58783 30.3955 5.60046C29.9976 4.57911 29.467 3.71273 28.6033 2.84959C27.7395 1.9858 26.8757 1.45523 25.8534 1.05892C24.8635 0.674902 23.7345 0.413176 22.0813 0.337473C20.425 0.262093 19.8977 0.243652 15.6791 0.243652H15.684ZM14.2909 3.04208C14.7044 3.04143 15.1657 3.04208 15.684 3.04208C19.83 3.04208 20.3215 3.05696 21.9587 3.13137C23.4727 3.2006 24.2945 3.45359 24.8418 3.66615C25.5665 3.94761 26.0831 4.28406 26.6263 4.82757C27.1698 5.37108 27.5062 5.88871 27.7883 6.61339C28.0009 7.16014 28.2542 7.98187 28.3231 9.49593C28.3975 11.1329 28.4137 11.6247 28.4137 15.7689C28.4137 19.9132 28.3975 20.4049 28.3231 22.0419C28.2539 23.556 28.0009 24.3777 27.7883 24.9245C27.5069 25.6492 27.1698 26.1652 26.6263 26.7084C26.0828 27.2519 25.5668 27.5883 24.8418 27.8698C24.2951 28.0833 23.4727 28.3357 21.9587 28.4049C20.3218 28.4793 19.83 28.4955 15.684 28.4955C11.5376 28.4955 11.0462 28.4793 9.40921 28.4049C7.89519 28.335 7.07348 28.082 6.52578 27.8695C5.80113 27.588 5.28351 27.2516 4.74002 26.708C4.19653 26.1645 3.86008 25.6482 3.57798 24.9232C3.36544 24.3765 3.11213 23.5547 3.04322 22.0407C2.96882 20.4037 2.95393 19.9119 2.95393 15.7651C2.95393 11.6182 2.96882 11.1291 3.04322 9.49205C3.11245 7.97799 3.36544 7.15625 3.57798 6.60886C3.85943 5.88418 4.19653 5.36655 4.74002 4.82304C5.28351 4.27953 5.80113 3.94308 6.52578 3.66097C7.07316 3.44745 7.89519 3.1951 9.40921 3.12555C10.8417 3.06084 11.3968 3.04143 14.2909 3.0382V3.04208ZM23.9729 5.62052C22.9441 5.62052 22.1095 6.45422 22.1095 7.48333C22.1095 8.51212 22.9441 9.34679 23.9729 9.34679C25.0016 9.34679 25.8363 8.51212 25.8363 7.48333C25.8363 6.45454 25.0016 5.61987 23.9729 5.61987V5.62052ZM15.684 7.79779C11.2801 7.79779 7.7095 11.3685 7.7095 15.7725C7.7095 20.1765 11.2801 23.7456 15.684 23.7456C20.0879 23.7456 23.6571 20.1765 23.6571 15.7725C23.6571 11.3685 20.0876 7.79779 15.6836 7.79779H15.684ZM15.684 10.5962C18.5425 10.5962 20.8601 12.9136 20.8601 15.7725C20.8601 18.6311 18.5425 20.9488 15.684 20.9488C12.8251 20.9488 10.5078 18.6311 10.5078 15.7725C10.5078 12.9136 12.8251 10.5962 15.684 10.5962Z" fill="url(#paint1_radial_728_79931)"/>
<defs>
<radialGradient id="paint0_radial_728_79931" cx="0" cy="0" r="1" gradientUnits="userSpaceOnUse" gradientTransform="translate(8.4037 33.6934) rotate(-90) scale(30.7805 28.6271)">
<stop stop-color="#FFDD55"/>
<stop offset="0.1" stop-color="#FFDD55"/>
<stop offset="0.5" stop-color="#FF543E"/>
<stop offset="1" stop-color="#C837AB"/>
</radialGradient>
<radialGradient id="paint1_radial_728_79931" cx="0" cy="0" r="1" gradientUnits="userSpaceOnUse" gradientTransform="translate(-5.04782 2.481) rotate(78.6811) scale(13.759 56.713)">
<stop stop-color="#3771C8"/>
<stop offset="0.128" stop-color="#3771C8"/>
<stop offset="1" stop-color="#6600FF" stop-opacity="0"/>
</radialGradient>
</defs>
</svg>
