<svg width="37" height="38" viewBox="0 0 37 38" fill="none" xmlns="http://www.w3.org/2000/svg">
<path d="M0 3.42701C0 1.99465 1.16116 0.833496 2.59352 0.833496H33.945C35.3774 0.833496 36.5386 1.99465 36.5386 3.42701V34.7784C36.5386 36.2108 35.3774 37.372 33.9451 37.372H2.59352C1.16116 37.372 0 36.2108 0 34.7784V3.42701Z" fill="#0A66C2"/>
<path d="M8.20096 12.1807C9.95155 12.1807 11.3707 10.7616 11.3707 9.01102C11.3707 7.26044 9.95155 5.84131 8.20096 5.84131C6.45038 5.84131 5.03125 7.26044 5.03125 9.01102C5.03125 10.7616 6.45038 12.1807 8.20096 12.1807Z" fill="white"/>
<path d="M14.2736 14.5232H19.5268V16.9298C19.5268 16.9298 20.9524 14.0787 24.831 14.0787C28.291 14.0787 31.1572 15.7832 31.1572 20.9785V31.9339H25.7134V22.306C25.7134 19.2412 24.0771 18.9042 22.8304 18.9042C20.2428 18.9042 19.7998 21.1361 19.7998 22.7057V31.9339H14.2736V14.5232Z" fill="white"/>
<path d="M5.43784 14.5233H10.9641V31.9339H5.43784V14.5233Z" fill="white"/>
</svg>
