<svg width="11" height="8" viewBox="0 0 11 8" fill="none" xmlns="http://www.w3.org/2000/svg">
<path d="M5.33685 3.44127C6.12667 3.44127 6.76696 2.80099 6.76696 2.01116C6.76696 1.22134 6.12667 0.581055 5.33685 0.581055C4.54702 0.581055 3.90674 1.22134 3.90674 2.01116C3.90674 2.80099 4.54702 3.44127 5.33685 3.44127Z" fill="#7E8A9D"/>
<path d="M8.54824 3.40364C9.13715 3.40364 9.61455 2.92624 9.61455 2.33734C9.61455 1.74843 9.13715 1.27103 8.54824 1.27103C7.95934 1.27103 7.48193 1.74843 7.48193 2.33734C7.48193 2.92624 7.95934 3.40364 8.54824 3.40364Z" fill="#7E8A9D"/>
<path d="M10.6682 5.92516C10.455 4.58287 9.75247 3.78 8.54817 3.78C8.08401 3.78 7.70766 3.8929 7.39404 4.11871C7.43168 4.15634 7.46931 4.19398 7.51949 4.23161C8.03383 4.77104 8.38508 5.54882 8.54817 6.53986C8.54817 6.57749 8.56071 6.61513 8.56071 6.64022C9.72738 6.65276 10.7561 6.45204 10.6682 5.92516Z" fill="#7E8A9D"/>
<path d="M2.12539 3.40364C2.7143 3.40364 3.1917 2.92624 3.1917 2.33734C3.1917 1.74843 2.7143 1.27103 2.12539 1.27103C1.53648 1.27103 1.05908 1.74843 1.05908 2.33734C1.05908 2.92624 1.53648 3.40364 2.12539 3.40364Z" fill="#7E8A9D"/>
<path d="M3.16648 4.23161C3.20411 4.19398 3.24174 4.15634 3.27938 4.11871C2.96576 3.8929 2.57687 3.78 2.12526 3.78C0.933499 3.78 0.23099 4.57032 0.00518307 5.92516C-0.0826306 6.45204 0.958589 6.65276 2.12526 6.65276C2.12526 6.61513 2.12526 6.57749 2.1378 6.5524C2.28834 5.56136 2.63959 4.78358 3.16648 4.23161Z" fill="#7E8A9D"/>
<path d="M5.33672 7.58107C3.76862 7.58107 2.38869 7.30508 2.50159 6.61511C2.80267 4.80866 3.74353 3.7549 5.33672 3.7549C6.92991 3.7549 7.87077 4.82121 8.17185 6.61511C8.28475 7.30508 6.90482 7.58107 5.33672 7.58107Z" fill="#7E8A9D"/>
</svg>
