<svg width="13" height="11" viewBox="0 0 13 11" fill="none" xmlns="http://www.w3.org/2000/svg">
<path d="M5.60328 0.726818L2.8859 3.09061H0.428823C0.191089 3.09061 0 3.2832 0 3.51943V7.1396C0 7.37733 0.192594 7.56842 0.428823 7.56842H2.8859L5.60328 9.93522C5.86208 10.1594 6.26382 9.97584 6.26382 9.63429V1.02775C6.26382 0.684688 5.86208 0.502626 5.60328 0.726818Z" fill="#7E8A9D"/>
<path d="M7.65841 2.84112C7.53202 2.66658 7.28827 2.62746 7.11373 2.75535C6.93919 2.88174 6.90007 3.1255 7.02797 3.30003C7.45829 3.89286 7.687 4.59553 7.687 5.3313C7.687 6.06707 7.4598 6.76973 7.02797 7.36256C6.90158 7.5371 6.93919 7.78085 7.11373 7.90724C7.18295 7.9569 7.26269 7.98248 7.34244 7.98248C7.46281 7.98248 7.58168 7.9268 7.65841 7.82148C8.18654 7.09474 8.4664 6.23258 8.4664 5.3313C8.4664 4.43002 8.18654 3.56786 7.65841 2.84112Z" fill="#7E8A9D"/>
<path d="M9.002 1.65662C8.87109 1.4851 8.62584 1.4535 8.45431 1.58591C8.28278 1.71681 8.25118 1.96207 8.38359 2.1336C9.09529 3.05744 9.47144 4.16336 9.47144 5.33096C9.47144 6.49856 9.09529 7.60597 8.38359 8.52832C8.25269 8.69985 8.28428 8.9436 8.45431 9.07601C8.52503 9.13017 8.60929 9.15726 8.69204 9.15726C8.8094 9.15726 8.92526 9.1046 9.002 9.00529C9.81902 7.94452 10.2508 6.6731 10.2508 5.33096C10.2508 3.98882 9.81902 2.7174 9.002 1.65662Z" fill="#7E8A9D"/>
<path d="M10.3472 0.478666C10.2133 0.310146 9.96803 0.281558 9.798 0.415471C9.62948 0.549384 9.60089 0.794641 9.73481 0.964665C10.7294 2.21803 11.2545 3.72869 11.2545 5.33113C11.2545 6.93508 10.7294 8.44423 9.73481 9.6976C9.60089 9.86612 9.62948 10.1114 9.798 10.2468C9.87023 10.304 9.95599 10.3311 10.0402 10.3311C10.1546 10.3311 10.269 10.2799 10.3457 10.1836C11.4531 8.7903 12.0369 7.11263 12.0369 5.33113C12.0369 3.54964 11.4531 1.87196 10.3472 0.478666Z" fill="#7E8A9D"/>
</svg>
