<svg width="36" height="36" viewBox="0 0 36 36" fill="none" xmlns="http://www.w3.org/2000/svg">
<path d="M17.7504 35.4231C7.98945 35.4231 0.0771484 27.5108 0.0771484 17.7499C0.0771484 7.98896 7.98945 0.0766602 17.7504 0.0766602C27.5113 0.0766602 35.4236 7.98896 35.4236 17.7499C35.4236 27.5108 27.5113 35.4231 17.7504 35.4231ZM29.5384 17.7499C29.5202 17.2524 29.3585 16.7708 29.0728 16.3632C28.7871 15.9555 28.3896 15.6392 27.9281 15.4524C27.4667 15.2656 26.9611 15.2163 26.4723 15.3103C25.9835 15.4044 25.5323 15.6379 25.1731 15.9826C23.1627 14.6159 20.7994 13.8609 18.3689 13.8088L19.5177 8.29471L23.2998 9.09C23.3447 9.50794 23.5372 9.89617 23.8426 10.185C24.148 10.4738 24.5463 10.6444 24.9661 10.666C25.3859 10.6876 25.7997 10.5588 26.1331 10.3029C26.4665 10.0469 26.6978 9.68046 26.7854 9.26934C26.8731 8.85822 26.8113 8.42933 26.6112 8.05966C26.4111 7.68999 26.0858 7.40375 25.6936 7.25232C25.3015 7.10088 24.8682 7.09417 24.4716 7.23339C24.075 7.37261 23.741 7.64864 23.5295 8.01193L19.1996 7.14595C19.1288 7.13041 19.0556 7.12909 18.9842 7.14205C18.9129 7.15501 18.8449 7.182 18.784 7.22145C18.7232 7.2609 18.6708 7.31204 18.6299 7.37189C18.589 7.43173 18.5603 7.49911 18.5457 7.5701L17.2378 13.7027C14.7775 13.7398 12.3817 14.4954 10.3453 15.8765C10.0728 15.6202 9.74791 15.4261 9.39302 15.3078C9.03812 15.1896 8.66175 15.1499 8.28999 15.1915C7.91822 15.2331 7.55996 15.3551 7.24002 15.5489C6.92007 15.7428 6.64611 16.0039 6.43711 16.3141C6.22811 16.6244 6.08907 16.9764 6.02962 17.3457C5.97018 17.7151 5.99175 18.0929 6.09285 18.4531C6.19395 18.8132 6.37215 19.1471 6.61511 19.4316C6.85807 19.716 7.15997 19.9442 7.4999 20.1004C7.48 20.3592 7.48 20.6192 7.4999 20.878C7.4999 24.8368 12.1126 28.0534 17.8034 28.0534C23.4942 28.0534 28.1069 24.8368 28.1069 20.878C28.1268 20.6192 28.1268 20.3592 28.1069 20.1004C28.543 19.8837 28.9089 19.5479 29.1622 19.1319C29.4155 18.716 29.5459 18.2368 29.5384 17.7499ZM11.8652 19.5172C11.8652 19.0485 12.0514 18.599 12.3828 18.2675C12.7143 17.9361 13.1638 17.7499 13.6325 17.7499C14.1012 17.7499 14.5508 17.9361 14.8822 18.2675C15.2136 18.599 15.3998 19.0485 15.3998 19.5172C15.3998 19.9859 15.2136 20.4354 14.8822 20.7669C14.5508 21.0983 14.1012 21.2845 13.6325 21.2845C13.1638 21.2845 12.7143 21.0983 12.3828 20.7669C12.0514 20.4354 11.8652 19.9859 11.8652 19.5172ZM22.1333 24.3773C20.8794 25.3222 19.3367 25.8032 17.768 25.7382C16.1993 25.8032 14.6566 25.3222 13.4028 24.3773C13.3276 24.2858 13.2892 24.1695 13.295 24.0512C13.3008 23.9329 13.3504 23.821 13.4342 23.7372C13.518 23.6534 13.6299 23.6038 13.7482 23.598C13.8665 23.5922 13.9828 23.6306 14.0743 23.7058C15.1369 24.4851 16.4339 24.878 17.7504 24.8192C19.0684 24.8908 20.3715 24.5105 21.4441 23.7411C21.4893 23.6905 21.5444 23.6497 21.606 23.6213C21.6677 23.5929 21.7345 23.5774 21.8023 23.5759C21.8702 23.5745 21.9376 23.5869 22.0004 23.6126C22.0633 23.6383 22.1201 23.6766 22.1675 23.7252C22.2149 23.7738 22.2518 23.8316 22.2759 23.8951C22.2999 23.9585 22.3107 24.0263 22.3075 24.0941C22.3043 24.1618 22.2872 24.2283 22.2572 24.2891C22.2272 24.35 22.1851 24.4041 22.1333 24.448V24.3773ZM21.8152 21.3552C21.4657 21.3552 21.124 21.2516 20.8333 21.0574C20.5427 20.8632 20.3162 20.5872 20.1824 20.2642C20.0487 19.9413 20.0137 19.5859 20.0818 19.2431C20.15 18.9003 20.3184 18.5854 20.5655 18.3382C20.8127 18.091 21.1276 17.9227 21.4704 17.8545C21.8132 17.7863 22.1686 17.8213 22.4915 17.9551C22.8145 18.0889 23.0905 18.3154 23.2847 18.606C23.4789 18.8967 23.5825 19.2383 23.5825 19.5879C23.5921 19.8274 23.5529 20.0663 23.4673 20.2901C23.3817 20.5139 23.2514 20.718 23.0845 20.89C22.9175 21.0619 22.7173 21.198 22.4961 21.2902C22.2748 21.3823 22.0372 21.4285 21.7975 21.4259L21.8152 21.3552Z" fill="#FC471E"/>
</svg>
