<svg width="16" height="12" viewBox="0 0 16 12" fill="none" xmlns="http://www.w3.org/2000/svg">
<path d="M0 2.20357V9.79688C0 10.8432 0.910463 11.6967 2.02651 11.6967H8.57271C9.68876 11.6967 10.5992 10.8432 10.5992 9.79688V8.56702C10.5992 8.35899 10.4197 8.19072 10.1978 8.19072C9.97593 8.19072 9.79645 8.35899 9.79645 8.56702V9.79688C9.79645 10.4302 9.24495 10.9472 8.56945 10.9472H2.02651C1.35101 10.9472 0.799511 10.4302 0.799511 9.79688V2.20357C0.799511 1.57028 1.35101 1.05325 2.02651 1.05325H8.57271C9.24822 1.05325 9.79972 1.57028 9.79972 2.20357V3.43343C9.79972 3.64147 9.9792 3.80973 10.2011 3.80973C10.423 3.80973 10.6025 3.64147 10.6025 3.43343V2.20357C10.6025 1.15727 9.69203 0.303711 8.57597 0.303711H2.02651C0.910463 0.303711 0 1.15421 0 2.20357Z" fill="#343F44"/>
<path d="M12.577 8.82964C12.6553 8.90306 12.7565 8.93977 12.8609 8.93977C12.9653 8.93977 13.0665 8.90306 13.1448 8.82964L15.8827 6.26284C16.0394 6.11599 16.0394 5.88042 15.8827 5.73357L13.1448 3.16678C12.9882 3.01993 12.7369 3.01993 12.5803 3.16678C12.4236 3.31363 12.4236 3.5492 12.5803 3.69605L14.6362 5.62344H7.13381C6.9119 5.62344 6.73242 5.7917 6.73242 5.99974C6.73242 6.20777 6.9119 6.37604 7.13381 6.37604H14.6329L12.577 8.30343C12.4204 8.44722 12.4204 8.68585 12.577 8.82964Z" fill="#343F44"/>
</svg>
