<svg width="34" height="34" viewBox="0 0 34 34" fill="none" xmlns="http://www.w3.org/2000/svg">
<path d="M6.31057 21.7881C6.52945 20.1152 7.27274 19.1785 8.67344 18.2184C10.6776 16.918 13.1811 17.6536 13.1811 17.6536V13.2898C13.7897 13.2755 14.3985 13.3088 15.0005 13.3893V19.0051C15.0005 19.0051 12.4978 18.2695 10.4937 19.5705C9.09373 20.53 8.34892 21.4673 8.1308 23.1402C8.12396 24.0486 8.30864 25.236 9.15909 26.2628C8.94882 26.1632 8.7345 26.0498 8.51612 25.9225C6.6427 24.7613 6.30145 23.0192 6.31057 21.7881ZM25.3374 5.22125C23.9588 3.82673 23.4374 2.41876 23.2489 1.42969H24.9833C24.9833 1.42969 24.6375 4.02306 27.1577 6.57341L27.1926 6.6077C26.5134 6.21331 25.8905 5.74779 25.3374 5.22125ZM33.6922 9.17485V14.6776C33.6922 14.6776 31.4791 14.5976 29.8413 14.213C27.5544 13.6751 26.0845 12.8501 26.0845 12.8501C26.0845 12.8501 25.0691 12.2618 24.9871 12.2207V23.584C24.9871 24.2167 24.7993 25.7968 24.2271 27.1147C23.48 28.8387 22.327 29.9703 22.115 30.2016C22.115 30.2016 20.7128 31.7312 18.2389 32.7613C16.0091 33.6906 14.0513 33.667 13.4661 33.6906C13.4661 33.6906 10.0817 33.8143 7.03638 31.9874C6.37784 31.5848 5.76312 31.1287 5.2002 30.6252L5.2154 30.6353C8.26152 32.4621 11.6451 32.3384 11.6451 32.3384C12.2311 32.3149 14.1888 32.3384 16.418 31.4092C18.8895 30.3791 20.294 28.8494 20.294 28.8494C20.5038 28.6181 21.662 27.4865 22.4061 25.7618C22.9768 24.4446 23.1661 22.8639 23.1661 22.2312V10.8693C23.2482 10.9109 24.2628 11.4993 24.2628 11.4993C24.2628 11.4993 25.7334 12.325 28.0203 12.8622C29.6589 13.2468 31.8712 13.3268 31.8712 13.3268V9.01483C32.6282 9.17149 33.2735 9.21385 33.6922 9.17485Z" fill="#FD355A"/>
<path d="M31.8723 9.01483V13.3255C31.8723 13.3255 29.6599 13.2455 28.0213 12.8608C25.7345 12.3229 24.2638 11.4979 24.2638 11.4979C24.2638 11.4979 23.2492 10.9096 23.1671 10.8679V22.2325C23.1671 22.8652 22.9794 24.446 22.4071 25.7632C21.66 27.4878 20.5071 28.6195 20.2951 28.8508C20.2951 28.8508 18.8921 30.3804 16.419 31.4105C14.1899 32.3398 12.2321 32.3162 11.6461 32.3398C11.6461 32.3398 8.26258 32.4635 5.21645 30.6366L5.20126 30.6265C4.87965 30.3391 4.57692 30.0356 4.29456 29.7175C3.32251 28.6235 2.72666 27.3298 2.57694 26.9607C2.57668 26.9591 2.57668 26.9576 2.57694 26.956C2.33602 26.3145 1.82985 24.7741 1.89901 23.2821C2.02137 20.6497 3.02458 19.034 3.28983 18.6292C3.99231 17.5254 4.90597 16.5378 5.99015 15.7104C6.94687 14.9964 8.03128 14.4283 9.19891 14.0294C10.4612 13.5611 11.8128 13.3101 13.1814 13.2898V17.6536C13.1814 17.6536 10.6779 16.9207 8.6745 18.2184C7.2738 19.1785 6.53051 20.1152 6.31163 21.7881C6.30251 23.0192 6.64375 24.7613 8.51566 25.9232C8.73404 26.051 8.94836 26.1644 9.15863 26.2634C9.48565 26.6558 9.88368 26.9977 10.3366 27.2754C12.1652 28.3438 13.6974 28.4184 15.6567 27.7245C16.9632 27.2606 17.9466 26.215 18.4026 25.0565C18.6892 24.333 18.6854 23.6048 18.6854 22.8518V1.42969H23.2454C23.4339 2.41876 23.9553 3.82673 25.3339 5.22125C25.887 5.74779 26.5099 6.21331 27.1891 6.6077C27.3898 6.79933 28.4158 7.74671 29.7329 8.32832C30.4139 8.62896 31.1318 8.85931 31.8723 9.01483Z" fill="black"/>
<path d="M9.1994 14.0295C8.03177 14.4283 6.94736 14.9964 5.99063 15.7104C4.90611 16.5397 3.99267 17.5294 3.29108 18.6353C3.02583 19.0387 2.02262 20.6558 1.90026 23.2882C1.8311 24.7802 2.33726 26.3206 2.57819 26.962C2.57793 26.9636 2.57793 26.9652 2.57819 26.9668C2.73019 27.3325 3.32376 28.6262 4.29581 29.7235C4.57817 30.0416 4.8809 30.3451 5.2025 30.6326C4.17207 30.0021 3.25309 29.2398 2.47558 28.3707C1.51189 27.2861 0.917564 26.0059 0.762522 25.628C0.76234 25.6254 0.76234 25.6227 0.762522 25.62V25.6153C0.520839 24.9745 0.0131526 23.4334 0.0838336 21.9394C0.206195 19.307 1.20941 17.6912 1.47465 17.2865C2.17604 16.1804 3.08951 15.1907 4.17421 14.3616C5.13074 13.6474 6.2152 13.0793 7.38297 12.6807C8.11137 12.4133 8.87017 12.216 9.64628 12.0923C10.8159 11.9117 12.0105 11.896 13.1857 12.0459V13.2898C11.8158 13.3097 10.4628 13.5607 9.1994 14.0295Z" fill="#33F3ED"/>
<path d="M23.249 1.42961H18.689V22.8524C18.689 23.6054 18.689 24.3316 18.4062 25.0571C17.9457 26.215 16.966 27.2605 15.6603 27.7244C13.7002 28.421 12.1681 28.3437 10.3402 27.2753C9.88649 26.9989 9.48744 26.6581 9.15918 26.2667C10.7164 27.0016 12.1103 26.9889 13.837 26.3757C15.142 25.9117 16.1232 24.8662 16.5822 23.7076C16.8695 22.9842 16.8657 22.256 16.8657 21.5036V0.0767822H23.1624C23.1624 0.0767822 23.0917 0.609309 23.249 1.42961ZM31.8721 7.82262V9.01475C31.1329 8.85899 30.4163 8.62865 29.7365 8.32825C28.4194 7.74664 27.3934 6.79925 27.1927 6.60763C27.4255 6.74286 27.6671 6.86589 27.9162 6.97609C29.5176 7.68344 31.0946 7.89457 31.8721 7.82262Z" fill="#33F3ED"/>
</svg>
