<svg width="36" height="32" viewBox="0 0 36 32" fill="none" xmlns="http://www.w3.org/2000/svg">
<path fill-rule="evenodd" clip-rule="evenodd" d="M31.7589 8.43454C31.7721 8.77601 31.7765 9.11734 31.7765 9.4588C31.7765 19.8114 24.494 31.7628 11.1768 31.7628C7.08597 31.7628 3.28211 30.459 0.0771484 28.2395C0.643682 28.3015 1.21905 28.3482 1.80324 28.3482C5.19508 28.3482 8.31911 27.0907 10.7971 24.9799C7.62897 24.9333 4.95377 22.6517 4.03113 19.5475C4.47405 19.6406 4.93019 19.6873 5.39666 19.6873C6.05443 19.6873 6.69306 19.5943 7.30521 19.4081C3.98989 18.6941 1.49275 15.5279 1.49275 11.7252C1.49275 11.6786 1.49275 11.663 1.49275 11.632C2.46984 12.2063 3.58817 12.5631 4.77569 12.6096C2.83034 11.1972 1.55158 8.7915 1.55158 6.07531C1.55158 4.64737 1.90769 3.29698 2.53455 2.1329C6.10445 6.88235 11.4417 10.0021 17.4587 10.3281C17.3351 9.75379 17.2718 9.14862 17.2718 8.5433C17.2718 4.21292 20.5135 0.705078 24.5131 0.705078C26.5953 0.705078 28.4759 1.652 29.7958 3.17307C31.4483 2.8316 32.9964 2.17976 34.3973 1.27954C33.8543 3.11103 32.708 4.6473 31.21 5.6096C32.6756 5.42335 34.0736 5.0046 35.37 4.38376C34.3973 5.95138 33.173 7.33255 31.7589 8.43454Z" fill="#1EA1F2"/>
</svg>
