<svg width="16" height="15" viewBox="0 0 16 15" fill="none" xmlns="http://www.w3.org/2000/svg">
<path d="M16 14.5C16 14.7775 15.775 15 15.5 15C15.225 15 15 14.7775 15 14.5C15 11.7875 12.86 9.405 9.7975 8.7075C9.61 8.665 9.465 8.52 9.4225 8.3325C9.38 8.145 9.4475 7.95 9.5975 7.83C10.475 7.1275 11 5.975 11 4.75C11 2.6825 9.5425 1 7.75 1C5.9575 1 4.5 2.6825 4.5 4.75C4.5 6.0325 5.0625 7.215 6.005 7.91C6.16 8.025 6.235 8.215 6.2 8.4025C6.165 8.59 6.0275 8.7425 5.8425 8.7925C2.945 9.5975 1 11.8925 1 14.5C1 14.7775 0.775 15 0.5 15C0.225 15 0 14.7775 0 14.5C0 11.7 1.8725 9.2175 4.7425 8.105C3.9525 7.2225 3.5 6.025 3.5 4.75C3.5 2.13 5.4075 0 7.75 0C10.0925 0 12 2.13 12 4.75C12 5.9525 11.5875 7.1025 10.87 7.97C13.93 8.9975 16 11.58 16 14.5Z" fill="#7E8A9D"/>
</svg>
